<?xml version="1.0" encoding="UTF-8" standalone="no"?>
<!-- Created with Inkscape (http://www.inkscape.org/) -->

<svg
   xmlns:dc="http://purl.org/dc/elements/1.1/"
   xmlns:cc="http://creativecommons.org/ns#"
   xmlns:rdf="http://www.w3.org/1999/02/22-rdf-syntax-ns#"
   xmlns:svg="http://www.w3.org/2000/svg"
   xmlns="http://www.w3.org/2000/svg"
   xmlns:sodipodi="http://sodipodi.sourceforge.net/DTD/sodipodi-0.dtd"
   xmlns:inkscape="http://www.inkscape.org/namespaces/inkscape"
   id="svg3004"
   version="1.1"
   inkscape:version="0.48.3.1 r9886"
   width="603.59375"
   height="403.89999"
   xml:space="preserve"
   sodipodi:docname="AULA 17.PDF"><metadata
     id="metadata3010"><rdf:RDF><cc:Work
         rdf:about=""><dc:format>image/svg+xml</dc:format><dc:type
           rdf:resource="http://purl.org/dc/dcmitype/StillImage" /><dc:title></dc:title></cc:Work></rdf:RDF></metadata><defs
     id="defs3008"><clipPath
       clipPathUnits="userSpaceOnUse"
       id="clipPath3018"><path
         d="m 0,1.2207e-4 720,0 0,539.99999793 -720,0 L 0,1.2207e-4 z"
         clip-rule="evenodd"
         id="path3020"
         inkscape:connector-curvature="0" /></clipPath></defs><sodipodi:namedview
     pagecolor="#ffffff"
     bordercolor="#666666"
     borderopacity="1"
     objecttolerance="10"
     gridtolerance="10"
     guidetolerance="10"
     inkscape:pageopacity="0"
     inkscape:pageshadow="2"
     inkscape:window-width="1246"
     inkscape:window-height="1061"
     id="namedview3006"
     showgrid="false"
     fit-margin-top="0"
     fit-margin-left="0"
     fit-margin-right="0"
     fit-margin-bottom="0"
     inkscape:zoom="0.31722222"
     inkscape:cx="452.17102"
     inkscape:cy="783.60799"
     inkscape:window-x="0"
     inkscape:window-y="17"
     inkscape:window-maximized="0"
     inkscape:current-layer="g3012" /><g
     id="g3012"
     inkscape:groupmode="layer"
     inkscape:label="AULA 17"
     transform="matrix(1.25,0,0,-1.25,-102.28902,-159.83468)"><g
       id="g3088"
       transform="translate(-5.0437828,-516.98774)"><path
         id="path3034"
         style="fill:#ccffcc;fill-opacity:1;fill-rule:evenodd;stroke:none"
         d="m 86.875,222 145,0 0,36 -145,0 0,-36 z"
         inkscape:connector-curvature="0" /><text
         id="text3036"
         transform="matrix(1,0,0,-1,94.08,231.17)"><tspan
           id="tspan3038"
           sodipodi:role="line"
           y="0"
           x="0 12.012 24.024 30.702671 37.381344 55.927872 67.939873 75.939865 83.939857 90.61853 99.963867 118.43832"
           style="font-size:24.02400017px;font-variant:normal;font-weight:normal;writing-mode:lr-tb;fill:#000000;fill-opacity:1;fill-rule:nonzero;stroke:none;font-family:Times New Roman;-inkscape-font-specification:Times New">polimorfismo</tspan></text>
<path
         id="path3040"
         style="fill:#ccffcc;fill-opacity:1;fill-rule:evenodd;stroke:none"
         d="m 278.88,132 102.37,0 0,36 -102.37,0 0,-36 z"
         inkscape:connector-curvature="0" /><text
         id="text3042"
         transform="matrix(1,0,0,-1,286.13,141.17)"><tspan
           id="tspan3044"
           sodipodi:role="line"
           y="0"
           x="0 12 24 30.672001 42.672001 53.327999 61.416 70.751999 81.407997"
           style="font-size:24px;font-variant:normal;font-weight:normal;writing-mode:lr-tb;fill:#000000;fill-opacity:1;fill-rule:nonzero;stroke:none;font-family:Times New Roman;-inkscape-font-specification:Times New">universal</tspan></text>
<path
         id="path3046"
         style="fill:#ccffcc;fill-opacity:1;fill-rule:evenodd;stroke:none"
         d="m 290.88,312 77.75,0 0,36 -77.75,0 0,-36 z"
         inkscape:connector-curvature="0" /><text
         id="text3048"
         transform="matrix(1,0,0,-1,298.13,321.19)"><tspan
           id="tspan3050"
           sodipodi:role="line"
           y="0"
           x="0 10.656 22.656 28.656 40.655998 52.655998"
           style="font-size:24px;font-variant:normal;font-weight:normal;writing-mode:lr-tb;fill:#000000;fill-opacity:1;fill-rule:nonzero;stroke:none;font-family:Times New Roman;-inkscape-font-specification:Times New">ad hoc</tspan></text>
<path
         id="path3052"
         style="fill:#ccffcc;fill-opacity:1;fill-rule:evenodd;stroke:none"
         d="m 440.88,180 128.87,0 0,36 -128.87,0 0,-36 z"
         inkscape:connector-curvature="0" /><text
         id="text3054"
         transform="matrix(1,0,0,-1,448.15,189.17)"><tspan
           id="tspan3056"
           sodipodi:role="line"
           y="0"
           x="0 12 22.656 30.695999 41.352001 59.855999 70.512001 77.232002 85.223999 91.968002 102.624"
           style="font-size:24px;font-variant:normal;font-weight:normal;writing-mode:lr-tb;fill:#000000;fill-opacity:1;fill-rule:nonzero;stroke:none;font-family:Times New Roman;-inkscape-font-specification:Times New">paramétrico</tspan></text>
<path
         id="path3058"
         style="fill:#ccffcc;fill-opacity:1;fill-rule:evenodd;stroke:none"
         d="m 434.88,66 94.375,0 0,36 -94.375,0 0,-36 z"
         inkscape:connector-curvature="0" /><text
         id="text3060"
         transform="matrix(1,0,0,-1,442.15,75.144)"><tspan
           id="tspan3062"
           sodipodi:role="line"
           y="0"
           x="0 6.6719999 18.672001 29.375999 36.048 48.048 57.383999 68.040001"
           style="font-size:24px;font-variant:normal;font-weight:normal;writing-mode:lr-tb;fill:#000000;fill-opacity:1;fill-rule:nonzero;stroke:none;font-family:Times New Roman;-inkscape-font-specification:Times New">inclusão</tspan></text>
<path
         id="path3064"
         style="fill:#ccffcc;fill-opacity:1;fill-rule:evenodd;stroke:none"
         d="m 433.25,262.37 118.37,0 0,36 -118.37,0 0,-36 z"
         inkscape:connector-curvature="0" /><text
         id="text3066"
         transform="matrix(1,0,0,-1,440.52,271.56)"><tspan
           id="tspan3068"
           sodipodi:role="line"
           y="0"
           x="0 9.3360004 21.336 33.335999 41.375999 52.032001 62.688 73.391998 80.952003 92.952003"
           style="font-size:24px;font-variant:normal;font-weight:normal;writing-mode:lr-tb;fill:#000000;fill-opacity:1;fill-rule:nonzero;stroke:none;font-family:Times New Roman;-inkscape-font-specification:Times New">sobrecarga</tspan></text>
<path
         id="path3070"
         style="fill:#ccffcc;fill-opacity:1;fill-rule:evenodd;stroke:none"
         d="m 438.88,353.12 89,0 0,36 -89,0 0,-36 z"
         inkscape:connector-curvature="0" /><text
         id="text3072"
         transform="matrix(1,0,0,-1,446.14,362.33)"><tspan
           id="tspan3074"
           sodipodi:role="line"
           y="0"
           x="0 10.656 22.656 33.312 41.375999 52.032001 62.688"
           style="font-size:24px;font-variant:normal;font-weight:normal;writing-mode:lr-tb;fill:#000000;fill-opacity:1;fill-rule:nonzero;stroke:none;font-family:Times New Roman;-inkscape-font-specification:Times New">coerção</tspan></text>
<path
         id="path3076"
         style="fill:#33cc33;fill-opacity:1;fill-rule:nonzero;stroke:none"
         d="m 232.39,250.34 57.67,52.43 -3.02,3.33 -57.68,-52.44 3.03,-3.32 z m 59.04,47.58 5.44,14.08 -14.52,-4.09 9.08,-9.99 z"
         inkscape:connector-curvature="0" /><path
         id="path3078"
         style="fill:#33cc33;fill-opacity:1;fill-rule:nonzero;stroke:none"
         d="m 382.55,142.49 46.47,51.64 -3.34,3.01 -46.48,-51.63 3.35,-3.02 z m 48.31,46.96 4.01,14.55 -14.04,-5.52 10.03,-9.03 z"
         inkscape:connector-curvature="0" /><path
         id="path3080"
         style="fill:#33cc33;fill-opacity:1;fill-rule:nonzero;stroke:none"
         d="m 370.39,316.34 57.67,52.43 -3.02,3.33 -57.68,-52.44 3.03,-3.32 z m 59.04,47.58 5.44,14.08 -14.52,-4.09 9.08,-9.99 z"
         inkscape:connector-curvature="0" /><path
         id="path3082"
         style="fill:#33cc33;fill-opacity:1;fill-rule:nonzero;stroke:none"
         d="m 232.56,223.49 40.52,-45.59 -3.36,-2.99 -40.53,45.6 3.37,2.98 z m 42.39,-40.92 3.92,-14.57 -14.01,5.61 10.09,8.96 z"
         inkscape:connector-curvature="0" /><path
         id="path3084"
         style="fill:#33cc33;fill-opacity:1;fill-rule:nonzero;stroke:none"
         d="m 382.56,133.49 40.52,-45.587 -3.36,-2.989 -40.53,45.596 3.37,2.98 z M 424.95,92.575 428.87,78 l -14.01,5.606 10.09,8.969 z"
         inkscape:connector-curvature="0" /><path
         id="path3086"
         style="fill:#33cc33;fill-opacity:1;fill-rule:nonzero;stroke:none"
         d="m 370.56,325.49 40.52,-45.59 -3.36,-2.99 -40.53,45.6 3.37,2.98 z m 42.39,-40.92 3.92,-14.57 -14.01,5.61 10.09,8.96 z"
         inkscape:connector-curvature="0" /></g></g></svg>