<?xml version="1.0" encoding="UTF-8" standalone="no"?>
<!-- Created with Inkscape (http://www.inkscape.org/) -->

<svg
   xmlns:dc="http://purl.org/dc/elements/1.1/"
   xmlns:cc="http://creativecommons.org/ns#"
   xmlns:rdf="http://www.w3.org/1999/02/22-rdf-syntax-ns#"
   xmlns:svg="http://www.w3.org/2000/svg"
   xmlns="http://www.w3.org/2000/svg"
   xmlns:sodipodi="http://sodipodi.sourceforge.net/DTD/sodipodi-0.dtd"
   xmlns:inkscape="http://www.inkscape.org/namespaces/inkscape"
   id="svg2985"
   version="1.1"
   inkscape:version="0.48.3.1 r9886"
   width="618.14062"
   height="371.65625"
   xml:space="preserve"
   sodipodi:docname="AULA 17.PDF"><metadata
     id="metadata2991"><rdf:RDF><cc:Work
         rdf:about=""><dc:format>image/svg+xml</dc:format><dc:type
           rdf:resource="http://purl.org/dc/dcmitype/StillImage" /><dc:title></dc:title></cc:Work></rdf:RDF></metadata><defs
     id="defs2989"><clipPath
       clipPathUnits="userSpaceOnUse"
       id="clipPath2999"><path
         d="m 0,1.2207e-4 720,0 0,539.99999793 -720,0 L 0,1.2207e-4 z"
         clip-rule="evenodd"
         id="path3001"
         inkscape:connector-curvature="0" /></clipPath><clipPath
       clipPathUnits="userSpaceOnUse"
       id="clipPath3147"><path
         d="m 250.8,98.16 107.04,0 0,117.6 -107.04,0 0,-117.6 z"
         clip-rule="evenodd"
         id="path3149"
         inkscape:connector-curvature="0" /></clipPath><clipPath
       clipPathUnits="userSpaceOnUse"
       id="clipPath3163"><path
         d="m 250.8,74.16 107.04,0 0,117.6 -107.04,0 0,-117.6 z"
         clip-rule="evenodd"
         id="path3165"
         inkscape:connector-curvature="0" /></clipPath><clipPath
       clipPathUnits="userSpaceOnUse"
       id="clipPath3179"><path
         d="m 250.8,50.16 107.04,0 0,117.6 -107.04,0 0,-117.6 z"
         clip-rule="evenodd"
         id="path3181"
         inkscape:connector-curvature="0" /></clipPath><clipPath
       clipPathUnits="userSpaceOnUse"
       id="clipPath3195"><path
         d="m 250.8,26.16 107.04,0 0,117.6 -107.04,0 0,-117.6 z"
         clip-rule="evenodd"
         id="path3197"
         inkscape:connector-curvature="0" /></clipPath><clipPath
       clipPathUnits="userSpaceOnUse"
       id="clipPath3239"><path
         d="m 116.4,157.2 73.44,0 0,117.6 -73.44,0 0,-117.6 z"
         clip-rule="evenodd"
         id="path3241"
         inkscape:connector-curvature="0" /></clipPath><clipPath
       clipPathUnits="userSpaceOnUse"
       id="clipPath3251"><path
         d="m 116.4,133.2 73.44,0 0,117.6 -73.44,0 0,-117.6 z"
         clip-rule="evenodd"
         id="path3253"
         inkscape:connector-curvature="0" /></clipPath><clipPath
       clipPathUnits="userSpaceOnUse"
       id="clipPath3263"><path
         d="m 116.4,109.2 73.44,0 0,117.6 -73.44,0 0,-117.6 z"
         clip-rule="evenodd"
         id="path3265"
         inkscape:connector-curvature="0" /></clipPath><clipPath
       clipPathUnits="userSpaceOnUse"
       id="clipPath3275"><path
         d="m 116.4,85.2 73.44,0 0,117.6 -73.44,0 0,-117.6 z"
         clip-rule="evenodd"
         id="path3277"
         inkscape:connector-curvature="0" /></clipPath><clipPath
       clipPathUnits="userSpaceOnUse"
       id="clipPath3287"><path
         d="m 116.4,85.2 73.44,0 0,117.6 -73.44,0 0,-117.6 z"
         clip-rule="evenodd"
         id="path3289"
         inkscape:connector-curvature="0" /></clipPath><clipPath
       clipPathUnits="userSpaceOnUse"
       id="clipPath3295"><path
         d="m 116.4,61.2 73.44,0 0,117.6 -73.44,0 0,-117.6 z"
         clip-rule="evenodd"
         id="path3297"
         inkscape:connector-curvature="0" /></clipPath><clipPath
       clipPathUnits="userSpaceOnUse"
       id="clipPath3343"><path
         d="m 456.96,246.96 104.52,0 0,117.6 -104.52,0 0,-117.6 z"
         clip-rule="evenodd"
         id="path3345"
         inkscape:connector-curvature="0" /></clipPath><clipPath
       clipPathUnits="userSpaceOnUse"
       id="clipPath3351"><path
         d="m 456.96,222.96 104.52,0 0,117.6 -104.52,0 0,-117.6 z"
         clip-rule="evenodd"
         id="path3353"
         inkscape:connector-curvature="0" /></clipPath><clipPath
       clipPathUnits="userSpaceOnUse"
       id="clipPath3363"><path
         d="m 456.96,198.96 104.52,0 0,117.6 -104.52,0 0,-117.6 z"
         clip-rule="evenodd"
         id="path3365"
         inkscape:connector-curvature="0" /></clipPath><clipPath
       clipPathUnits="userSpaceOnUse"
       id="clipPath3375"><path
         d="m 456.96,174.96 104.52,0 0,117.6 -104.52,0 0,-117.6 z"
         clip-rule="evenodd"
         id="path3377"
         inkscape:connector-curvature="0" /></clipPath><clipPath
       clipPathUnits="userSpaceOnUse"
       id="clipPath3387"><path
         d="m 456.96,150.96 104.52,0 0,117.6 -104.52,0 0,-117.6 z"
         clip-rule="evenodd"
         id="path3389"
         inkscape:connector-curvature="0" /></clipPath><clipPath
       clipPathUnits="userSpaceOnUse"
       id="clipPath3433"><path
         d="m 455.16,117.6 121.44,0 0,117.6 -121.44,0 0,-117.6 z"
         clip-rule="evenodd"
         id="path3435"
         inkscape:connector-curvature="0" /></clipPath><clipPath
       clipPathUnits="userSpaceOnUse"
       id="clipPath3441"><path
         d="m 455.16,93.6 121.44,0 0,117.6 -121.44,0 0,-117.6 z"
         clip-rule="evenodd"
         id="path3443"
         inkscape:connector-curvature="0" /></clipPath><clipPath
       clipPathUnits="userSpaceOnUse"
       id="clipPath3453"><path
         d="m 455.16,69.6 121.44,0 0,117.6 -121.44,0 0,-117.6 z"
         clip-rule="evenodd"
         id="path3455"
         inkscape:connector-curvature="0" /></clipPath><clipPath
       clipPathUnits="userSpaceOnUse"
       id="clipPath3465"><path
         d="m 455.16,45.6 121.44,0 0,117.6 -121.44,0 0,-117.6 z"
         clip-rule="evenodd"
         id="path3467"
         inkscape:connector-curvature="0" /></clipPath><clipPath
       clipPathUnits="userSpaceOnUse"
       id="clipPath3481"><path
         d="m 455.16,21.6 121.44,0 0,117.6 -121.44,0 0,-117.6 z"
         clip-rule="evenodd"
         id="path3483"
         inkscape:connector-curvature="0" /></clipPath></defs><sodipodi:namedview
     pagecolor="#ffffff"
     bordercolor="#666666"
     borderopacity="1"
     objecttolerance="10"
     gridtolerance="10"
     guidetolerance="10"
     inkscape:pageopacity="0"
     inkscape:pageshadow="2"
     inkscape:window-width="1303"
     inkscape:window-height="1061"
     id="namedview2987"
     showgrid="false"
     fit-margin-top="0"
     fit-margin-left="0"
     fit-margin-right="0"
     fit-margin-bottom="0"
     inkscape:zoom="0.91452477"
     inkscape:cx="338.31362"
     inkscape:cy="237.76515"
     inkscape:window-x="0"
     inkscape:window-y="17"
     inkscape:window-maximized="0"
     inkscape:current-layer="g3477" /><g
     id="g2993"
     inkscape:groupmode="layer"
     inkscape:label="AULA 17"
     transform="matrix(1.25,0,0,-1.25,-123.98438,397.8125)"><path
       d="m 99.575,252.27 113.75,0 0,39.875 -113.75,0 0,-39.875 z"
       style="fill:#99cc00;fill-opacity:1;fill-rule:evenodd;stroke:none"
       id="path3091"
       inkscape:connector-curvature="0" /><path
       d="m 99.575,252.27 113.75,0 0,39.875 -113.75,0 0,-39.875 z"
       style="fill:none;stroke:#000000;stroke-width:0.75;stroke-linecap:butt;stroke-linejoin:miter;stroke-miterlimit:10;stroke-opacity:1;stroke-dasharray:none"
       id="path3093"
       inkscape:connector-curvature="0" /><text
       transform="matrix(1,0,0,-1,106.8,297.84)"
       id="text3095"
       style="font-size:16px;font-style:normal;font-variant:normal;font-weight:normal;font-stretch:normal;text-align:start;line-height:125%;writing-mode:lr-tb;text-anchor:start;font-family:Sans;-inkscape-font-specification:Sans"
       sodipodi:linespacing="125%"><tspan
         style="font-size:16px;font-style:normal;font-variant:normal;font-weight:normal;font-stretch:normal;text-align:start;line-height:125%;writing-mode:lr-tb;text-anchor:start;fill:#000000;fill-opacity:1;fill-rule:nonzero;stroke:none;font-family:Sans;-inkscape-font-specification:Sans"
         x="0 12.006 16.002001 25.92 35.928001 45.846001 50.993999 61.001999 66.005997 76.517998 81.522003 91.440002 101.448 113.994 118.548 130.554 134.55 144.468 154.476 164.394 170.388 176.382"
         y="0"
         sodipodi:role="line"
         id="tspan3097">Aluno a = new Aluno();</tspan></text>
<path
       d="m 99.575,268.21 113.755,0"
       style="fill:none;stroke:#000000;stroke-width:0.75;stroke-linecap:butt;stroke-linejoin:round;stroke-miterlimit:10;stroke-opacity:1;stroke-dasharray:none"
       id="path3099"
       inkscape:connector-curvature="0" /><path
       d="m 172.99,20.925 173.41,0 0,21.875 -173.41,0 0,-21.875 z"
       style="fill:#ffff00;fill-opacity:1;fill-rule:evenodd;stroke:none"
       id="path3101"
       inkscape:connector-curvature="0" /><path
       d="m 167.67,33.8 -12.94,0 -20.27,73.55"
       style="fill:none;stroke:#000000;stroke-width:0.75;stroke-linecap:butt;stroke-linejoin:miter;stroke-miterlimit:8;stroke-opacity:1;stroke-dasharray:none"
       id="path3103"
       inkscape:connector-curvature="0" /><text
       transform="matrix(1,0,0,-1,180.22,25.536)"
       id="text3105"
       style="font-size:16px;font-style:normal;font-variant:normal;font-weight:normal;font-stretch:normal;text-align:start;line-height:125%;writing-mode:lr-tb;text-anchor:start;font-family:Sans;-inkscape-font-specification:Sans"
       sodipodi:linespacing="125%"><tspan
         style="font-size:16px;font-style:normal;font-variant:normal;font-weight:normal;font-stretch:normal;text-align:start;line-height:125%;writing-mode:lr-tb;text-anchor:start;fill:#000000;fill-opacity:1;fill-rule:nonzero;stroke:none;font-family:Sans;-inkscape-font-specification:Sans"
         x="0 10.92312 18.729361 21.846239 29.652479 33.583679 41.389919 44.984161 52.04628 56.7216 59.838482 67.644722 75.450958 83.257202 86.85144 91.526756 95.472 98.588882 106.39512 114.20136 117.06552 126.4302 129.54707 137.35332 145.15956 152.96581"
         y="0"
         sodipodi:role="line"
         id="tspan3107">Objeto criado (tipo Aluno)</tspan></text>
<path
       d="m 250.81,168.9 107.08,0 0,24 -107.08,0 0,-24 z"
       style="fill:#bbe0e3;fill-opacity:1;fill-rule:evenodd;stroke:none"
       id="path3109"
       inkscape:connector-curvature="0" /><path
       d="m 250.81,144.9 107.08,0 0,24 -107.08,0 0,-24 z"
       style="fill:#e7f3f4;fill-opacity:1;fill-rule:evenodd;stroke:none"
       id="path3111"
       inkscape:connector-curvature="0" /><path
       d="m 250.81,120.9 107.08,0 0,24 -107.08,0 0,-24 z"
       style="fill:#f3f9fa;fill-opacity:1;fill-rule:evenodd;stroke:none"
       id="path3113"
       inkscape:connector-curvature="0" /><path
       d="m 250.81,96.9 107.08,0 0,24 -107.08,0 0,-24 z"
       style="fill:#e7f3f4;fill-opacity:1;fill-rule:evenodd;stroke:none"
       id="path3115"
       inkscape:connector-curvature="0" /><path
       d="m 250.81,72.9 107.08,0 0,24 -107.08,0 0,-24 z"
       style="fill:#f3f9fa;fill-opacity:1;fill-rule:evenodd;stroke:none"
       id="path3117"
       inkscape:connector-curvature="0" /><path
       d="m 250.81,48.9 107.08,0 0,24 -107.08,0 0,-24 z"
       style="fill:#e7f3f4;fill-opacity:1;fill-rule:evenodd;stroke:none"
       id="path3119"
       inkscape:connector-curvature="0" /><path
       d="m 250.31,168.9 108.08,0"
       style="fill:none;stroke:#ffffff;stroke-width:3;stroke-linecap:butt;stroke-linejoin:round;stroke-miterlimit:8;stroke-opacity:1;stroke-dasharray:none"
       id="path3121"
       inkscape:connector-curvature="0" /><path
       d="m 250.31,144.9 108.08,0"
       style="fill:none;stroke:#ffffff;stroke-width:1;stroke-linecap:butt;stroke-linejoin:round;stroke-miterlimit:8;stroke-opacity:1;stroke-dasharray:none"
       id="path3123"
       inkscape:connector-curvature="0" /><path
       d="m 250.31,120.9 108.08,0"
       style="fill:none;stroke:#ffffff;stroke-width:1;stroke-linecap:butt;stroke-linejoin:round;stroke-miterlimit:8;stroke-opacity:1;stroke-dasharray:none"
       id="path3125"
       inkscape:connector-curvature="0" /><path
       d="m 250.31,96.9 108.08,0"
       style="fill:none;stroke:#ffffff;stroke-width:1;stroke-linecap:butt;stroke-linejoin:round;stroke-miterlimit:8;stroke-opacity:1;stroke-dasharray:none"
       id="path3127"
       inkscape:connector-curvature="0" /><path
       d="m 250.31,72.9 108.08,0"
       style="fill:none;stroke:#ffffff;stroke-width:1;stroke-linecap:butt;stroke-linejoin:round;stroke-miterlimit:8;stroke-opacity:1;stroke-dasharray:none"
       id="path3129"
       inkscape:connector-curvature="0" /><path
       d="m 250.81,193.4 0,-145"
       style="fill:none;stroke:#ffffff;stroke-width:1;stroke-linecap:butt;stroke-linejoin:round;stroke-miterlimit:8;stroke-opacity:1;stroke-dasharray:none"
       id="path3131"
       inkscape:connector-curvature="0" /><path
       d="m 357.89,193.4 0,-145"
       style="fill:none;stroke:#ffffff;stroke-width:1;stroke-linecap:butt;stroke-linejoin:round;stroke-miterlimit:8;stroke-opacity:1;stroke-dasharray:none"
       id="path3133"
       inkscape:connector-curvature="0" /><path
       d="m 250.31,192.9 108.08,0"
       style="fill:none;stroke:#ffffff;stroke-width:1;stroke-linecap:butt;stroke-linejoin:round;stroke-miterlimit:8;stroke-opacity:1;stroke-dasharray:none"
       id="path3135"
       inkscape:connector-curvature="0" /><path
       d="m 250.31,48.9 108.08,0"
       style="fill:none;stroke:#ffffff;stroke-width:1;stroke-linecap:butt;stroke-linejoin:round;stroke-miterlimit:8;stroke-opacity:1;stroke-dasharray:none"
       id="path3137"
       inkscape:connector-curvature="0" /><text
       transform="matrix(1,0,0,-1,289.51,175.66)"
       id="text3139"
       style="font-size:16px;font-style:normal;font-variant:normal;font-weight:normal;font-stretch:normal;text-align:start;line-height:125%;writing-mode:lr-tb;text-anchor:start;font-family:Sans;-inkscape-font-specification:Sans"
       sodipodi:linespacing="125%"><tspan
         style="font-size:16px;font-style:normal;font-variant:normal;font-weight:normal;font-stretch:normal;text-align:start;line-height:125%;writing-mode:lr-tb;text-anchor:start;fill:#000000;fill-opacity:1;fill-rule:nonzero;stroke:none;font-family:Sans;-inkscape-font-specification:Sans"
         x="0 9.3806877 21.222576"
         y="0"
         sodipodi:role="line"
         id="tspan3141">VMT</tspan></text>
<g
       id="g3143"><g
         id="g3145"
         clip-path="url(#clipPath3147)"><text
           transform="matrix(1,0,0,-1,258.05,151.66)"
           id="text3151"><tspan
             style="font-size:14.03999996px;font-variant:normal;font-weight:normal;writing-mode:lr-tb;fill:#000000;fill-opacity:1;fill-rule:nonzero;stroke:none;font-family:Arial Black;-inkscape-font-specification:Arial"
             x="0 7.8062401 15.61248 22.660561 30.466801 38.273041 45.321121 49.168079 53.843399 61.523281 65.468521 73.148399"
             y="0"
             sodipodi:role="line"
             id="tspan3153">p_construtor</tspan></text>
</g></g><text
       transform="matrix(1,0,0,-1,335.95,151.66)"
       id="text3155"
       style="font-size:16px;font-style:normal;font-variant:normal;font-weight:normal;font-stretch:normal;text-align:start;line-height:125%;writing-mode:lr-tb;text-anchor:start;font-family:Sans;-inkscape-font-specification:Sans"
       sodipodi:linespacing="125%"><tspan
         style="font-size:16px;font-style:normal;font-variant:normal;font-weight:normal;font-stretch:normal;text-align:start;line-height:125%;writing-mode:lr-tb;text-anchor:start;fill:#000000;fill-opacity:1;fill-rule:nonzero;stroke:none;font-family:Sans;-inkscape-font-specification:Sans"
         x="0 4.5603199"
         y="0"
         sodipodi:role="line"
         id="tspan3157">()</tspan></text>
<g
       id="g3159"><g
         id="g3161"
         clip-path="url(#clipPath3163)"><text
           transform="matrix(1,0,0,-1,258.05,127.66)"
           id="text3167"><tspan
             style="font-size:14.03999996px;font-variant:normal;font-weight:normal;writing-mode:lr-tb;fill:#000000;fill-opacity:1;fill-rule:nonzero;stroke:none;font-family:Arial Black;-inkscape-font-specification:Arial"
             x="0 7.8062401 15.61248 27.2376 35.043839 42.105961 46.051201 50.726521 58.406399"
             y="0"
             sodipodi:role="line"
             id="tspan3169">p_mostrar</tspan></text>
</g></g><text
       transform="matrix(1,0,0,-1,321.19,127.66)"
       id="text3171"
       style="font-size:16px;font-style:normal;font-variant:normal;font-weight:normal;font-stretch:normal;text-align:start;line-height:125%;writing-mode:lr-tb;text-anchor:start;font-family:Sans;-inkscape-font-specification:Sans"
       sodipodi:linespacing="125%"><tspan
         style="font-size:16px;font-style:normal;font-variant:normal;font-weight:normal;font-stretch:normal;text-align:start;line-height:125%;writing-mode:lr-tb;text-anchor:start;fill:#000000;fill-opacity:1;fill-rule:nonzero;stroke:none;font-family:Sans;-inkscape-font-specification:Sans"
         x="0 4.5603199"
         y="0"
         sodipodi:role="line"
         id="tspan3173">()</tspan></text>
<g
       id="g3175"><g
         id="g3177"
         clip-path="url(#clipPath3179)"><text
           transform="matrix(1,0,0,-1,258.05,103.66)"
           id="text3183"><tspan
             style="font-size:14.03999996px;font-variant:normal;font-weight:normal;writing-mode:lr-tb;fill:#000000;fill-opacity:1;fill-rule:nonzero;stroke:none;font-family:Arial Black;-inkscape-font-specification:Arial"
             x="0 7.8062401 15.61248 22.660561 30.466801 34.412041 44.49276 52.299 63.93816"
             y="0"
             sodipodi:role="line"
             id="tspan3185">p_setNome</tspan></text>
</g></g><text
       transform="matrix(1,0,0,-1,329.83,103.66)"
       id="text3187"
       style="font-size:16px;font-style:normal;font-variant:normal;font-weight:normal;font-stretch:normal;text-align:start;line-height:125%;writing-mode:lr-tb;text-anchor:start;font-family:Sans;-inkscape-font-specification:Sans"
       sodipodi:linespacing="125%"><tspan
         style="font-size:16px;font-style:normal;font-variant:normal;font-weight:normal;font-stretch:normal;text-align:start;line-height:125%;writing-mode:lr-tb;text-anchor:start;fill:#000000;fill-opacity:1;fill-rule:nonzero;stroke:none;font-family:Sans;-inkscape-font-specification:Sans"
         x="0 4.5603199"
         y="0"
         sodipodi:role="line"
         id="tspan3189">()</tspan></text>
<g
       id="g3191"><g
         id="g3193"
         clip-path="url(#clipPath3195)"><text
           transform="matrix(1,0,0,-1,258.05,79.656)"
           id="text3199"><tspan
             style="font-size:14.03999996px;font-variant:normal;font-weight:normal;writing-mode:lr-tb;fill:#000000;fill-opacity:1;fill-rule:nonzero;stroke:none;font-family:Arial Black;-inkscape-font-specification:Arial"
             x="0 7.8062401 15.61248 22.660561 30.466801 34.412041 38.357281 46.037159 53.843399 61.523281"
             y="0"
             sodipodi:role="line"
             id="tspan3201">p_setIdade</tspan></text>
</g></g><text
       transform="matrix(1,0,0,-1,298.39,55.632)"
       id="text3203"
       style="font-size:16px;font-style:normal;font-variant:normal;font-weight:normal;font-stretch:normal;text-align:start;line-height:125%;writing-mode:lr-tb;text-anchor:start;font-family:Sans;-inkscape-font-specification:Sans"
       sodipodi:linespacing="125%"><tspan
         style="font-size:16px;font-style:normal;font-variant:normal;font-weight:normal;font-stretch:normal;text-align:start;line-height:125%;writing-mode:lr-tb;text-anchor:start;fill:#000000;fill-opacity:1;fill-rule:nonzero;stroke:none;font-family:Sans;-inkscape-font-specification:Sans"
         x="0 3.9599919 7.9199839"
         y="0"
         sodipodi:role="line"
         id="tspan3205">...</tspan></text>
<path
       d="m 153.95,260.28 0,-19.59 -1,0 0,19.59 1,0 z m -3.5,0 3,3 3,-3 -3,-3 -3,3 z m 6,-18.59 -3,-6 -3,6 6,0 z"
       style="fill:#000000;fill-opacity:1;fill-rule:nonzero;stroke:none"
       id="path3207"
       inkscape:connector-curvature="0" /><path
       d="m 116.38,204 73.413,0 0,24 -73.413,0 0,-24 z"
       style="fill:#e7f3f4;fill-opacity:1;fill-rule:evenodd;stroke:none"
       id="path3209"
       inkscape:connector-curvature="0" /><path
       d="m 116.38,180 73.413,0 0,24 -73.413,0 0,-24 z"
       style="fill:#f3f9fa;fill-opacity:1;fill-rule:evenodd;stroke:none"
       id="path3211"
       inkscape:connector-curvature="0" /><path
       d="m 116.38,156 73.413,0 0,24 -73.413,0 0,-24 z"
       style="fill:#e7f3f4;fill-opacity:1;fill-rule:evenodd;stroke:none"
       id="path3213"
       inkscape:connector-curvature="0" /><path
       d="m 116.38,132 73.413,0 0,24 -73.413,0 0,-24 z"
       style="fill:#f3f9fa;fill-opacity:1;fill-rule:evenodd;stroke:none"
       id="path3215"
       inkscape:connector-curvature="0" /><path
       d="m 116.38,108 73.413,0 0,24 -73.413,0 0,-24 z"
       style="fill:#e7f3f4;fill-opacity:1;fill-rule:evenodd;stroke:none"
       id="path3217"
       inkscape:connector-curvature="0" /><path
       d="m 115.88,204 74.41,0"
       style="fill:none;stroke:#ffffff;stroke-width:1;stroke-linecap:butt;stroke-linejoin:round;stroke-miterlimit:8;stroke-opacity:1;stroke-dasharray:none"
       id="path3219"
       inkscape:connector-curvature="0" /><path
       d="m 115.88,180 74.41,0"
       style="fill:none;stroke:#ffffff;stroke-width:1;stroke-linecap:butt;stroke-linejoin:round;stroke-miterlimit:8;stroke-opacity:1;stroke-dasharray:none"
       id="path3221"
       inkscape:connector-curvature="0" /><path
       d="m 115.88,156 74.41,0"
       style="fill:none;stroke:#ffffff;stroke-width:1;stroke-linecap:butt;stroke-linejoin:round;stroke-miterlimit:8;stroke-opacity:1;stroke-dasharray:none"
       id="path3223"
       inkscape:connector-curvature="0" /><path
       d="m 115.88,132 74.41,0"
       style="fill:none;stroke:#ffffff;stroke-width:1;stroke-linecap:butt;stroke-linejoin:round;stroke-miterlimit:8;stroke-opacity:1;stroke-dasharray:none"
       id="path3225"
       inkscape:connector-curvature="0" /><path
       d="m 116.38,228.5 0,-121"
       style="fill:none;stroke:#ffffff;stroke-width:1;stroke-linecap:butt;stroke-linejoin:round;stroke-miterlimit:8;stroke-opacity:1;stroke-dasharray:none"
       id="path3227"
       inkscape:connector-curvature="0" /><path
       d="m 189.79,228.5 0,-121"
       style="fill:none;stroke:#ffffff;stroke-width:1;stroke-linecap:butt;stroke-linejoin:round;stroke-miterlimit:8;stroke-opacity:1;stroke-dasharray:none"
       id="path3229"
       inkscape:connector-curvature="0" /><path
       d="m 115.88,228 74.41,0"
       style="fill:none;stroke:#ffffff;stroke-width:1;stroke-linecap:butt;stroke-linejoin:round;stroke-miterlimit:8;stroke-opacity:1;stroke-dasharray:none"
       id="path3231"
       inkscape:connector-curvature="0" /><path
       d="m 115.88,108 74.41,0"
       style="fill:none;stroke:#ffffff;stroke-width:1;stroke-linecap:butt;stroke-linejoin:round;stroke-miterlimit:8;stroke-opacity:1;stroke-dasharray:none"
       id="path3233"
       inkscape:connector-curvature="0" /><g
       id="g3235"><g
         id="g3237"
         clip-path="url(#clipPath3239)"><text
           transform="matrix(1,0,0,-1,123.6,210.77)"
           id="text3243"><tspan
             style="font-size:14.03999996px;font-variant:normal;font-weight:bold;writing-mode:lr-tb;fill:#000000;fill-opacity:1;fill-rule:nonzero;stroke:none;font-family:Arial Black;-inkscape-font-specification:Arial Bold"
             x="0 8.5222797 16.32852 24.13476 28.06596 35.8722 43.67844"
             y="0"
             sodipodi:role="line"
             id="tspan3245">p_class</tspan></text>
</g></g><g
       id="g3247"><g
         id="g3249"
         clip-path="url(#clipPath3251)"><text
           transform="matrix(1,0,0,-1,123.6,186.77)"
           id="text3255"><tspan
             style="font-size:14.03999996px;font-variant:normal;font-weight:normal;writing-mode:lr-tb;fill:#000000;fill-opacity:1;fill-rule:nonzero;stroke:none;font-family:Arial Black;-inkscape-font-specification:Arial"
             x="0 7.8062401 15.61248 27.2376"
             y="0"
             sodipodi:role="line"
             id="tspan3257">nome</tspan></text>
</g></g><g
       id="g3259"><g
         id="g3261"
         clip-path="url(#clipPath3263)"><text
           transform="matrix(1,0,0,-1,123.6,162.77)"
           id="text3267"><tspan
             style="font-size:14.03999996px;font-variant:normal;font-weight:normal;writing-mode:lr-tb;fill:#000000;fill-opacity:1;fill-rule:nonzero;stroke:none;font-family:Arial Black;-inkscape-font-specification:Arial"
             x="0 3.1199999 10.92936 18.73872 26.54808"
             y="0"
             sodipodi:role="line"
             id="tspan3269">idade</tspan></text>
</g></g><g
       id="g3271"><g
         id="g3273"
         clip-path="url(#clipPath3275)"><text
           transform="matrix(1,0,0,-1,123.6,138.77)"
           id="text3279"><tspan
             style="font-size:14.03999996px;font-variant:normal;font-weight:normal;writing-mode:lr-tb;fill:#000000;fill-opacity:1;fill-rule:nonzero;stroke:none;font-family:Arial Black;-inkscape-font-specification:Arial"
             x="0 11.63916 19.4454 23.39064 28.06596 31.18284 38.258999 46.065239 49.182121"
             y="0"
             sodipodi:role="line"
             id="tspan3281">matricula</tspan></text>
</g></g><g
       id="g3283"><g
         id="g3285"
         clip-path="url(#clipPath3287)" /></g><g
       id="g3291"><g
         id="g3293"
         clip-path="url(#clipPath3295)"><text
           transform="matrix(1,0,0,-1,123.6,114.74)"
           id="text3299"><tspan
             style="font-size:14.06400013px;font-variant:normal;font-weight:bold;writing-mode:lr-tb;fill:#000000;fill-opacity:1;fill-rule:nonzero;stroke:none;font-family:Arial Black;-inkscape-font-specification:Arial Bold"
             x="0 8.5227842 16.342367 25.723057 37.55088"
             y="0"
             sodipodi:role="line"
             id="tspan3301">p_VMT</tspan></text>
</g></g><path
       d="m 180.8,120.6 53.41,0 0,-1 -53.41,0 0,1 z m 47.66,3.43 6.74,-3.93 -6.74,-3.93 c -0.24,-0.14 -0.54,-0.06 -0.68,0.18 -0.14,0.24 -0.06,0.54 0.18,0.68 l 6,3.5 0,-0.86 -6,3.5 c -0.24,0.14 -0.32,0.44 -0.18,0.68 0.14,0.24 0.44,0.32 0.68,0.18 z"
       style="fill:#000000;fill-opacity:1;fill-rule:nonzero;stroke:none"
       id="path3303"
       inkscape:connector-curvature="0" /><path
       d="m 180.96,214.99 275.07,90.63 -0.32,0.95 -275.07,-90.63 0.32,-0.95 z m 270.67,85.57 5.17,5.84 -7.63,1.63 c -0.27,0.05 -0.54,-0.12 -0.59,-0.39 -0.06,-0.27 0.11,-0.53 0.38,-0.59 l 6.8,-1.45 -0.27,0.82 -4.61,-5.2 c -0.18,-0.21 -0.16,-0.52 0.04,-0.71 0.21,-0.18 0.53,-0.16 0.71,0.05 z"
       style="fill:#000000;fill-opacity:1;fill-rule:nonzero;stroke:none"
       id="path3305"
       inkscape:connector-curvature="0" /><path
       d="m 354.75,154.45 101.89,102.25 -0.71,0.7 -101.88,-102.25 0.7,-0.7 z m 100.26,95.75 1.97,7.55 -7.54,-2 c -0.27,-0.07 -0.43,-0.34 -0.36,-0.61 0.08,-0.27 0.35,-0.43 0.62,-0.35 l 6.71,1.78 -0.61,0.61 -1.76,-6.73 c -0.07,-0.26 0.09,-0.54 0.36,-0.61 0.27,-0.07 0.54,0.09 0.61,0.36 z"
       style="fill:#000000;fill-opacity:1;fill-rule:nonzero;stroke:none"
       id="path3307"
       inkscape:connector-curvature="0" /><path
       d="m 456.98,293.75 104.5,0 0,24 -104.5,0 0,-24 z"
       style="fill:#bbe0e3;fill-opacity:1;fill-rule:evenodd;stroke:none"
       id="path3309"
       inkscape:connector-curvature="0" /><path
       d="m 456.98,269.75 104.5,0 0,24 -104.5,0 0,-24 z"
       style="fill:#e7f3f4;fill-opacity:1;fill-rule:evenodd;stroke:none"
       id="path3311"
       inkscape:connector-curvature="0" /><path
       d="m 456.98,245.75 104.5,0 0,24 -104.5,0 0,-24 z"
       style="fill:#f3f9fa;fill-opacity:1;fill-rule:evenodd;stroke:none"
       id="path3313"
       inkscape:connector-curvature="0" /><path
       d="m 456.98,221.75 104.5,0 0,24 -104.5,0 0,-24 z"
       style="fill:#e7f3f4;fill-opacity:1;fill-rule:evenodd;stroke:none"
       id="path3315"
       inkscape:connector-curvature="0" /><path
       d="m 456.98,197.75 104.5,0 0,24 -104.5,0 0,-24 z"
       style="fill:#f3f9fa;fill-opacity:1;fill-rule:evenodd;stroke:none"
       id="path3317"
       inkscape:connector-curvature="0" /><path
       d="m 456.48,293.75 105.5,0"
       style="fill:none;stroke:#ffffff;stroke-width:3;stroke-linecap:butt;stroke-linejoin:round;stroke-miterlimit:8;stroke-opacity:1;stroke-dasharray:none"
       id="path3319"
       inkscape:connector-curvature="0" /><path
       d="m 456.48,269.75 105.5,0"
       style="fill:none;stroke:#ffffff;stroke-width:1;stroke-linecap:butt;stroke-linejoin:round;stroke-miterlimit:8;stroke-opacity:1;stroke-dasharray:none"
       id="path3321"
       inkscape:connector-curvature="0" /><path
       d="m 456.48,245.75 105.5,0"
       style="fill:none;stroke:#ffffff;stroke-width:1;stroke-linecap:butt;stroke-linejoin:round;stroke-miterlimit:8;stroke-opacity:1;stroke-dasharray:none"
       id="path3323"
       inkscape:connector-curvature="0" /><path
       d="m 456.48,221.75 105.5,0"
       style="fill:none;stroke:#ffffff;stroke-width:1;stroke-linecap:butt;stroke-linejoin:round;stroke-miterlimit:8;stroke-opacity:1;stroke-dasharray:none"
       id="path3325"
       inkscape:connector-curvature="0" /><path
       d="m 456.98,318.25 0,-121"
       style="fill:none;stroke:#ffffff;stroke-width:1;stroke-linecap:butt;stroke-linejoin:round;stroke-miterlimit:8;stroke-opacity:1;stroke-dasharray:none"
       id="path3327"
       inkscape:connector-curvature="0" /><path
       d="m 561.48,318.25 0,-121"
       style="fill:none;stroke:#ffffff;stroke-width:1;stroke-linecap:butt;stroke-linejoin:round;stroke-miterlimit:8;stroke-opacity:1;stroke-dasharray:none"
       id="path3329"
       inkscape:connector-curvature="0" /><path
       d="m 456.48,317.75 105.5,0"
       style="fill:none;stroke:#ffffff;stroke-width:1;stroke-linecap:butt;stroke-linejoin:round;stroke-miterlimit:8;stroke-opacity:1;stroke-dasharray:none"
       id="path3331"
       inkscape:connector-curvature="0" /><path
       d="m 456.48,197.75 105.5,0"
       style="fill:none;stroke:#ffffff;stroke-width:1;stroke-linecap:butt;stroke-linejoin:round;stroke-miterlimit:8;stroke-opacity:1;stroke-dasharray:none"
       id="path3333"
       inkscape:connector-curvature="0" /><text
       transform="matrix(1,0,0,-1,465.5,300.55)"
       id="text3335"
       style="font-size:16px;font-style:normal;font-variant:normal;font-weight:normal;font-stretch:normal;text-align:start;line-height:125%;writing-mode:lr-tb;text-anchor:start;font-family:Sans;-inkscape-font-specification:Sans"
       sodipodi:linespacing="125%"><tspan
         style="font-size:16px;font-style:normal;font-variant:normal;font-weight:normal;font-stretch:normal;text-align:start;line-height:125%;writing-mode:lr-tb;text-anchor:start;fill:#000000;fill-opacity:1;fill-rule:nonzero;stroke:none;font-family:Sans;-inkscape-font-specification:Sans"
         x="0 10.08072 14.02596 21.832199 29.638439 37.444679 45.250919 48.339722 58.055401 62.000641 70.522919 79.045197"
         y="0"
         sodipodi:role="line"
         id="tspan3337">Classe Aluno</tspan></text>
<g
       id="g3339"><g
         id="g3341"
         clip-path="url(#clipPath3343)" /></g><g
       id="g3347"><g
         id="g3349"
         clip-path="url(#clipPath3351)"><text
           transform="matrix(1,0,0,-1,464.26,276.53)"
           id="text3355"><tspan
             style="font-size:14.03999996px;font-variant:normal;font-weight:bold;writing-mode:lr-tb;fill:#000000;fill-opacity:1;fill-rule:nonzero;stroke:none;font-family:Arial Black;-inkscape-font-specification:Arial Bold"
             x="0 8.5222797 16.32852 24.13476 32.643002 41.165279 48.971519"
             y="0"
             sodipodi:role="line"
             id="tspan3357">p_super</tspan></text>
</g></g><g
       id="g3359"><g
         id="g3361"
         clip-path="url(#clipPath3363)"><text
           transform="matrix(1,0,0,-1,464.26,252.53)"
           id="text3367"><tspan
             style="font-size:14.03999996px;font-variant:normal;font-weight:normal;writing-mode:lr-tb;fill:#000000;fill-opacity:1;fill-rule:nonzero;stroke:none;font-family:Arial Black;-inkscape-font-specification:Arial"
             x="0 9.3599997 12.4722 20.27376 28.075319 35.876881 40.54752"
             y="0"
             sodipodi:role="line"
             id="tspan3369">Aluno()</tspan></text>
</g></g><g
       id="g3371"><g
         id="g3373"
         clip-path="url(#clipPath3375)"><text
           transform="matrix(1,0,0,-1,464.26,228.53)"
           id="text3379"><tspan
             style="font-size:14.03999996px;font-variant:normal;font-weight:normal;writing-mode:lr-tb;fill:#000000;fill-opacity:1;fill-rule:nonzero;stroke:none;font-family:Arial Black;-inkscape-font-specification:Arial"
             x="0 11.63916 19.4454 26.507521 30.452761 35.128078 42.934319 47.609638 52.172642"
             y="0"
             sodipodi:role="line"
             id="tspan3381">mostrar()</tspan></text>
</g></g><g
       id="g3383"><g
         id="g3385"
         clip-path="url(#clipPath3387)"><text
           transform="matrix(1,0,0,-1,464.26,204.53)"
           id="text3391"><tspan
             style="font-size:14.03999996px;font-variant:normal;font-weight:normal;writing-mode:lr-tb;fill:#000000;fill-opacity:1;fill-rule:nonzero;stroke:none;font-family:Arial Black;-inkscape-font-specification:Arial"
             x="0 3.9600201 7.9200401"
             y="0"
             sodipodi:role="line"
             id="tspan3393">...</tspan></text>
</g></g><path
       d="m 455.2,164.4 121.36,0 0,24 -121.36,0 0,-24 z"
       style="fill:#bbe0e3;fill-opacity:1;fill-rule:evenodd;stroke:none"
       id="path3395"
       inkscape:connector-curvature="0" /><path
       d="m 455.2,140.4 121.36,0 0,24 -121.36,0 0,-24 z"
       style="fill:#e7f3f4;fill-opacity:1;fill-rule:evenodd;stroke:none"
       id="path3397"
       inkscape:connector-curvature="0" /><path
       d="m 455.2,116.4 121.36,0 0,24 -121.36,0 0,-24 z"
       style="fill:#f3f9fa;fill-opacity:1;fill-rule:evenodd;stroke:none"
       id="path3399"
       inkscape:connector-curvature="0" /><path
       d="m 455.2,92.4 121.36,0 0,24 -121.36,0 0,-24 z"
       style="fill:#e7f3f4;fill-opacity:1;fill-rule:evenodd;stroke:none"
       id="path3401"
       inkscape:connector-curvature="0" /><path
       d="m 455.2,68.4 121.36,0 0,24 -121.36,0 0,-24 z"
       style="fill:#f3f9fa;fill-opacity:1;fill-rule:evenodd;stroke:none"
       id="path3403"
       inkscape:connector-curvature="0" /><path
       d="m 455.2,44.4 121.36,0 0,24 -121.36,0 0,-24 z"
       style="fill:#e7f3f4;fill-opacity:1;fill-rule:evenodd;stroke:none"
       id="path3405"
       inkscape:connector-curvature="0" /><path
       d="m 454.7,164.4 122.36,0"
       style="fill:none;stroke:#ffffff;stroke-width:3;stroke-linecap:butt;stroke-linejoin:round;stroke-miterlimit:8;stroke-opacity:1;stroke-dasharray:none"
       id="path3407"
       inkscape:connector-curvature="0" /><path
       d="m 454.7,140.4 122.36,0"
       style="fill:none;stroke:#ffffff;stroke-width:1;stroke-linecap:butt;stroke-linejoin:round;stroke-miterlimit:8;stroke-opacity:1;stroke-dasharray:none"
       id="path3409"
       inkscape:connector-curvature="0" /><path
       d="m 454.7,116.4 122.36,0"
       style="fill:none;stroke:#ffffff;stroke-width:1;stroke-linecap:butt;stroke-linejoin:round;stroke-miterlimit:8;stroke-opacity:1;stroke-dasharray:none"
       id="path3411"
       inkscape:connector-curvature="0" /><path
       d="m 454.7,92.4 122.36,0"
       style="fill:none;stroke:#ffffff;stroke-width:1;stroke-linecap:butt;stroke-linejoin:round;stroke-miterlimit:8;stroke-opacity:1;stroke-dasharray:none"
       id="path3413"
       inkscape:connector-curvature="0" /><path
       d="m 454.7,68.4 122.36,0"
       style="fill:none;stroke:#ffffff;stroke-width:1;stroke-linecap:butt;stroke-linejoin:round;stroke-miterlimit:8;stroke-opacity:1;stroke-dasharray:none"
       id="path3415"
       inkscape:connector-curvature="0" /><path
       d="m 455.2,188.9 0,-145"
       style="fill:none;stroke:#ffffff;stroke-width:1;stroke-linecap:butt;stroke-linejoin:round;stroke-miterlimit:8;stroke-opacity:1;stroke-dasharray:none"
       id="path3417"
       inkscape:connector-curvature="0" /><path
       d="m 576.56,188.9 0,-145"
       style="fill:none;stroke:#ffffff;stroke-width:1;stroke-linecap:butt;stroke-linejoin:round;stroke-miterlimit:8;stroke-opacity:1;stroke-dasharray:none"
       id="path3419"
       inkscape:connector-curvature="0" /><path
       d="m 454.7,188.4 122.36,0"
       style="fill:none;stroke:#ffffff;stroke-width:1;stroke-linecap:butt;stroke-linejoin:round;stroke-miterlimit:8;stroke-opacity:1;stroke-dasharray:none"
       id="path3421"
       inkscape:connector-curvature="0" /><path
       d="m 454.7,44.4 122.36,0"
       style="fill:none;stroke:#ffffff;stroke-width:1;stroke-linecap:butt;stroke-linejoin:round;stroke-miterlimit:8;stroke-opacity:1;stroke-dasharray:none"
       id="path3423"
       inkscape:connector-curvature="0" /><text
       transform="matrix(1,0,0,-1,466.94,171.17)"
       id="text3425"
       style="font-size:16px;font-style:normal;font-variant:normal;font-weight:normal;font-stretch:normal;text-align:start;line-height:125%;writing-mode:lr-tb;text-anchor:start;font-family:Sans;-inkscape-font-specification:Sans"
       sodipodi:linespacing="125%"><tspan
         style="font-size:16px;font-style:normal;font-variant:normal;font-weight:normal;font-stretch:normal;text-align:start;line-height:125%;writing-mode:lr-tb;text-anchor:start;fill:#000000;fill-opacity:1;fill-rule:nonzero;stroke:none;font-family:Sans;-inkscape-font-specification:Sans"
         x="0 10.08072 14.02596 21.832199 29.638439 37.444679 45.250919 48.83112 58.195801 66.002037 73.808281 81.614517 90.108719"
         y="0"
         sodipodi:role="line"
         id="tspan3427">Classe Pessoa</tspan></text>
<g
       id="g3429"><g
         id="g3431"
         clip-path="url(#clipPath3433)" /></g><g
       id="g3437"><g
         id="g3439"
         clip-path="url(#clipPath3441)"><text
           transform="matrix(1,0,0,-1,462.48,147.17)"
           id="text3445"><tspan
             style="font-size:14.03999996px;font-variant:normal;font-weight:normal;writing-mode:lr-tb;fill:#000000;fill-opacity:1;fill-rule:nonzero;stroke:none;font-family:Arial Black;-inkscape-font-specification:Arial"
             x="0 9.3646803 17.170919 24.219 31.28112 39.08736 46.8936 51.56892"
             y="0"
             sodipodi:role="line"
             id="tspan3447">Pessoa()</tspan></text>
</g></g><g
       id="g3449"><g
         id="g3451"
         clip-path="url(#clipPath3453)"><text
           transform="matrix(1,0,0,-1,462.48,123.17)"
           id="text3457"><tspan
             style="font-size:14.03999996px;font-variant:normal;font-weight:normal;writing-mode:lr-tb;fill:#000000;fill-opacity:1;fill-rule:nonzero;stroke:none;font-family:Arial Black;-inkscape-font-specification:Arial"
             x="0 11.63916 19.4454 26.507521 30.452761 35.128078 42.934319 47.609638 52.172642"
             y="0"
             sodipodi:role="line"
             id="tspan3459">mostrar()</tspan></text>
</g></g><g
       id="g3461"><g
         id="g3463"
         clip-path="url(#clipPath3465)"><text
           transform="matrix(1,0,0,-1,462.48,99.144)"
           id="text3469"><tspan
             style="font-size:14.03999996px;font-variant:normal;font-weight:normal;writing-mode:lr-tb;fill:#000000;fill-opacity:1;fill-rule:nonzero;stroke:none;font-family:Arial Black;-inkscape-font-specification:Arial"
             x="0 7.06212 14.86836 18.813601 28.89432 36.700562 48.339722"
             y="0"
             sodipodi:role="line"
             id="tspan3471">setNome</tspan></text>
</g></g><text
       transform="matrix(1,0,0,-1,518.64,99.144)"
       id="text3473"
       style="font-size:16px;font-style:normal;font-variant:normal;font-weight:normal;font-stretch:normal;text-align:start;line-height:125%;writing-mode:lr-tb;text-anchor:start;font-family:Sans;-inkscape-font-specification:Sans"
       sodipodi:linespacing="125%"><tspan
         style="font-size:16px;font-style:normal;font-variant:normal;font-weight:normal;font-stretch:normal;text-align:start;line-height:125%;writing-mode:lr-tb;text-anchor:start;fill:#000000;fill-opacity:1;fill-rule:nonzero;stroke:none;font-family:Sans;-inkscape-font-specification:Sans"
         x="0 4.6799998"
         y="0"
         sodipodi:role="line"
         id="tspan3475">()</tspan></text>
<g
       id="g3477"><g
         id="g3479"
         clip-path="url(#clipPath3481)"><text
           transform="matrix(1,0,0,-1,462.48,75.144)"
           id="text3485"><tspan
             style="font-size:14.03999996px;font-variant:normal;font-weight:normal;writing-mode:lr-tb;fill:#000000;fill-opacity:1;fill-rule:nonzero;stroke:none;font-family:Arial Black;-inkscape-font-specification:Arial"
             x="0 7.06212 14.86836 18.813601 22.758841 30.565081 38.371319 46.037159"
             y="0"
             sodipodi:role="line"
             id="tspan3487">setIdade</tspan></text>
</g></g><text
       transform="matrix(1,0,0,-1,516.36,75.144)"
       id="text3489"
       style="font-size:16px;font-style:normal;font-variant:normal;font-weight:normal;font-stretch:normal;text-align:start;line-height:125%;writing-mode:lr-tb;text-anchor:start;font-family:Sans;-inkscape-font-specification:Sans"
       sodipodi:linespacing="125%"><tspan
         style="font-size:16px;font-style:normal;font-variant:normal;font-weight:normal;font-stretch:normal;text-align:start;line-height:125%;writing-mode:lr-tb;text-anchor:start;fill:#000000;fill-opacity:1;fill-rule:nonzero;stroke:none;font-family:Sans;-inkscape-font-specification:Sans"
         x="0 4.5603199"
         y="0"
         sodipodi:role="line"
         id="tspan3491">()</tspan></text>
<text
       transform="matrix(1,0,0,-1,510.02,51.144)"
       id="text3493"
       style="font-size:16px;font-style:normal;font-variant:normal;font-weight:normal;font-stretch:normal;text-align:start;line-height:125%;writing-mode:lr-tb;text-anchor:start;font-family:Sans;-inkscape-font-specification:Sans"
       sodipodi:linespacing="125%"><tspan
         style="font-size:16px;font-style:normal;font-variant:normal;font-weight:normal;font-stretch:normal;text-align:start;line-height:125%;writing-mode:lr-tb;text-anchor:start;fill:#000000;fill-opacity:1;fill-rule:nonzero;stroke:none;font-family:Sans;-inkscape-font-specification:Sans"
         x="0 3.9600201 7.9200401"
         y="0"
         sodipodi:role="line"
         id="tspan3495">...</tspan></text>
<path
       d="m 346.74,133.71 109.67,100.94 -0.68,0.74 -109.67,-100.95 0.68,-0.73 z m 107.76,94.52 2.3,7.46 -7.62,-1.67 c -0.27,-0.06 -0.44,-0.33 -0.38,-0.6 0.06,-0.27 0.32,-0.44 0.59,-0.38 l 6.79,1.49 -0.59,0.63 -2.04,-6.63 c -0.08,-0.27 0.07,-0.55 0.33,-0.63 0.26,-0.08 0.54,0.07 0.62,0.33 z"
       style="fill:#000000;fill-opacity:1;fill-rule:nonzero;stroke:none"
       id="path3497"
       inkscape:connector-curvature="0" /><path
       d="m 350.43,109.3 105.41,-6.39 -0.06,-1 -105.41,6.39 0.06,1 z m 99.88,-2.62 6.49,-4.33 -6.96,-3.517 c -0.25,-0.124 -0.55,-0.025 -0.68,0.221 -0.12,0.247 -0.02,0.547 0.23,0.672 l 6.2,3.134 -0.06,-0.87 -5.77,3.86 c -0.23,0.15 -0.29,0.46 -0.14,0.69 0.15,0.23 0.46,0.3 0.69,0.14 z"
       style="fill:#000000;fill-opacity:1;fill-rule:nonzero;stroke:none"
       id="path3499"
       inkscape:connector-curvature="0" /><path
       d="m 335.22,88.5 120.62,-5.976 -0.05,-0.999 -120.61,5.976 0.04,0.999 z m 115.04,-2.264 6.54,-4.261 -6.92,-3.593 c -0.25,-0.128 -0.55,-0.032 -0.68,0.213 -0.13,0.245 -0.03,0.547 0.21,0.674 l 6.17,3.199 -0.04,-0.863 -5.82,3.793 c -0.23,0.151 -0.3,0.46 -0.15,0.692 0.15,0.231 0.46,0.296 0.69,0.146 z"
       style="fill:#000000;fill-opacity:1;fill-rule:nonzero;stroke:none"
       id="path3501"
       inkscape:connector-curvature="0" /><path
       d="m 552.34,281.84 40.86,0 c 0.28,0 0.5,-0.23 0.5,-0.5 l 0,-104.5 c 0,-0.28 -0.22,-0.5 -0.5,-0.5 l -17.01,0 0,1 17.01,0 -0.5,-0.5 0,104.5 0.5,-0.5 -40.86,0 0,1 z m 29.6,-108.93 -6.74,3.93 6.74,3.93 c 0.24,0.14 0.54,0.06 0.68,-0.18 0.14,-0.24 0.06,-0.54 -0.18,-0.68 l -6,-3.5 0,0.86 6,-3.5 c 0.24,-0.14 0.32,-0.44 0.18,-0.68 -0.14,-0.24 -0.44,-0.32 -0.68,-0.18 z"
       style="fill:#000000;fill-opacity:1;fill-rule:nonzero;stroke:none"
       id="path3503"
       inkscape:connector-curvature="0" /></g></svg>